<?xml version="1.0" encoding="iso-8859-1"?>
<!-- Uploaded to: SVG Repo, www.svgrepo.com, Generator: SVG Repo Mixer Tools -->
<svg height="50px" width="65px" version="1.1" id="Layer_1" xmlns="http://www.w3.org/2000/svg" xmlns:xlink="http://www.w3.org/1999/xlink" 
	 viewBox="0 0 512.001 512.001" xml:space="preserve">
<g transform="translate(1 1)">
	<path style="fill:#FFDD09;" d="M497.347,320.707L459.8,306.2l-22.187-89.6c-1.707-7.68-8.533-12.8-16.213-12.8h-89.6v-34.133
		c0-5.12-3.413-8.533-8.533-8.533H176.493c-7.68,39.253-42.667,68.267-83.627,68.267v170.667c0,5.12,3.413,8.533,8.533,8.533h42.667
		c0-23.893,18.773-42.667,42.667-42.667S229.4,384.707,229.4,408.6h102.4h34.133c0-23.893,18.773-42.667,42.667-42.667
		c23.893,0,42.667,18.773,42.667,42.667h42.667c5.12,0,8.533-3.413,8.533-8.533V329.24
		C502.467,325.827,500.76,322.413,497.347,320.707"/>
	<path style="fill:#FCC309;" d="M323.267,161.133H176.493c-7.68,39.253-42.667,68.267-83.627,68.267v68.267h153.6
		c46.933,0,85.333-38.4,85.333-85.333v-42.667C331.8,164.547,328.387,161.133,323.267,161.133"/>
	<g>
		<path style="fill:#FFDD09;" d="M229.4,408.6c0-23.893-18.773-42.667-42.667-42.667s-42.667,18.773-42.667,42.667
			s18.773,42.667,42.667,42.667S229.4,432.493,229.4,408.6"/>
		<path style="fill:#FFDD09;" d="M451.267,408.6c0-23.893-18.773-42.667-42.667-42.667c-23.893,0-42.667,18.773-42.667,42.667
			s18.773,42.667,42.667,42.667C432.493,451.267,451.267,432.493,451.267,408.6"/>
	</g>
	<path style="fill:#FFFFFF;" d="M92.867,229.4v170.667c0,5.12,3.413,8.533,8.533,8.533H127c-5.12,0-8.533-3.413-8.533-8.533V229.4"
		/>
	<path style="fill:#FD9808;" d="M497.347,320.707L459.8,306.2l-22.187-89.6c-1.707-7.68-8.533-12.8-16.213-12.8h-25.6
		c7.68,0,14.507,5.12,16.213,12.8l22.187,89.6l37.547,14.507c3.413,1.707,5.12,4.267,5.12,7.68v71.68
		c0,5.12-3.413,8.533-8.533,8.533h25.6c5.12,0,8.533-3.413,8.533-8.533V329.24C502.467,325.827,500.76,322.413,497.347,320.707"/>
	<path style="fill:#FFDD09;" d="M178.2,144.067c0-46.933-38.4-85.333-85.333-85.333s-85.333,38.4-85.333,85.333
		s38.4,85.333,85.333,85.333S178.2,191,178.2,144.067"/>
	<path style="fill:#FFFFFF;" d="M92.867,58.733c4.267,0,8.533,0.853,12.8,0.853c-40.96,6.827-72.533,41.813-72.533,84.48
		s31.573,77.653,72.533,84.48c-4.267,0-8.533,0.853-12.8,0.853c-46.933,0-85.333-38.4-85.333-85.333S45.933,58.733,92.867,58.733"/>
	<path d="M186.733,459.8c-28.16,0-51.2-23.04-51.2-51.2s23.04-51.2,51.2-51.2s51.2,23.04,51.2,51.2S214.893,459.8,186.733,459.8z
		 M186.733,374.467c-18.773,0-34.133,15.36-34.133,34.133s15.36,34.133,34.133,34.133s34.133-15.36,34.133-34.133
		S205.507,374.467,186.733,374.467z"/>
	<path d="M186.733,425.667c-9.387,0-17.067-7.68-17.067-17.067s7.68-17.067,17.067-17.067c9.387,0,17.067,7.68,17.067,17.067
		S196.12,425.667,186.733,425.667"/>
	<path d="M408.6,425.667c-9.387,0-17.067-7.68-17.067-17.067s7.68-17.067,17.067-17.067c9.387,0,17.067,7.68,17.067,17.067
		S417.987,425.667,408.6,425.667"/>
	<path d="M408.6,459.8c-28.16,0-51.2-23.04-51.2-51.2s23.04-51.2,51.2-51.2c28.16,0,51.2,23.04,51.2,51.2S436.76,459.8,408.6,459.8z
		 M408.6,374.467c-18.773,0-34.133,15.36-34.133,34.133s15.36,34.133,34.133,34.133c18.773,0,34.133-15.36,34.133-34.133
		S427.373,374.467,408.6,374.467z"/>
	<path d="M459.8,314.733h-74.24c-15.36,0-28.16-12.8-28.16-28.16v-40.107c0-5.12,3.413-8.533,8.533-8.533s8.533,3.413,8.533,8.533
		v40.107c0,5.973,5.12,11.093,11.093,11.093h74.24c5.12,0,8.533,3.413,8.533,8.533C468.333,311.32,464.92,314.733,459.8,314.733z"/>
	<path d="M383,348.867h-17.067c-5.12,0-8.533-3.413-8.533-8.533s3.413-8.533,8.533-8.533H383c5.12,0,8.533,3.413,8.533,8.533
		S388.12,348.867,383,348.867z"/>
	<path d="M272.067,212.333H153.453c-5.12,0-8.533-3.413-8.533-8.533c0-5.12,3.413-8.533,8.533-8.533h118.613
		c5.12,0,8.533,3.413,8.533,8.533C280.6,208.92,277.187,212.333,272.067,212.333z"/>
	<path d="M255,263.533H135.533c-5.12,0-8.533-3.413-8.533-8.533c0-5.12,3.413-8.533,8.533-8.533H255c5.12,0,8.533,3.413,8.533,8.533
		C263.533,260.12,260.12,263.533,255,263.533z"/>
	<path d="M92.867,237.933C40.813,237.933-1,196.12-1,144.067S40.813,50.2,92.867,50.2s93.867,41.813,93.867,93.867
		S144.92,237.933,92.867,237.933z M92.867,67.267c-42.667,0-76.8,34.133-76.8,76.8s34.133,76.8,76.8,76.8s76.8-34.133,76.8-76.8
		S135.533,67.267,92.867,67.267z"/>
	<path d="M493.933,417.133h-42.667c-5.12,0-8.533-3.413-8.533-8.533c0-18.773-15.36-34.133-34.133-34.133
		c-18.773,0-34.133,15.36-34.133,34.133c0,5.12-3.413,8.533-8.533,8.533H229.4c-5.12,0-8.533-3.413-8.533-8.533
		c0-18.773-15.36-34.133-34.133-34.133S152.6,389.827,152.6,408.6c0,5.12-3.413,8.533-8.533,8.533H101.4
		c-9.387,0-17.067-7.68-17.067-17.067V229.4c0-5.12,3.413-8.533,8.533-8.533c36.693,0,68.267-25.6,75.093-61.44
		c0.853-4.267,4.267-6.827,8.533-6.827h146.773c9.387,0,17.067,7.68,17.067,17.067v25.6h80.213c11.947,0,22.187,7.68,24.747,19.627
		l21.333,85.333l33.28,13.653l0,0c6.827,2.56,11.093,8.533,11.093,16.213v69.973C511,409.453,503.32,417.133,493.933,417.133z
		 M458.947,400.067h34.987V329.24l3.413-7.68l-3.413,7.68l-37.547-14.507c-2.56-0.853-4.267-3.413-5.12-5.973l-22.187-89.6
		c-0.853-3.413-4.267-6.827-8.533-6.827H331.8c-5.12,0-8.533-3.413-8.533-8.533v-34.133H183.32c-10.24,37.547-43.52,64-81.92,68.267
		v162.133h34.987c4.267-23.893,24.747-42.667,50.347-42.667s46.08,18.773,50.347,42.667h121.173
		C362.52,376.173,383,357.4,408.6,357.4C434.2,357.4,454.68,376.173,458.947,400.067z"/>
	<path d="M246.467,306.2h-153.6c-5.12,0-8.533-3.413-8.533-8.533V229.4c0-5.12,3.413-8.533,8.533-8.533
		c36.693,0,68.267-25.6,75.093-61.44c0.853-4.267,4.267-6.827,8.533-6.827h146.773c9.387,0,17.067,7.68,17.067,17.067v42.667
		C340.333,264.387,298.52,306.2,246.467,306.2z M101.4,289.133h145.067c42.667,0,76.8-34.133,76.8-76.8v-42.667H183.32
		c-10.24,37.547-43.52,64-81.92,68.267V289.133z"/>
	<path d="M92.867,152.6c-5.12,0-8.533-3.413-8.533-8.533v-51.2c0-5.12,3.413-8.533,8.533-8.533s8.533,3.413,8.533,8.533v51.2
		C101.4,149.187,97.987,152.6,92.867,152.6z"/>
	<path d="M118.467,152.6h-25.6c-5.12,0-8.533-3.413-8.533-8.533c0-5.12,3.413-8.533,8.533-8.533h25.6
		c5.12,0,8.533,3.413,8.533,8.533C127,149.187,123.587,152.6,118.467,152.6z"/>
</g>
</svg>